<mxfile host="app.diagrams.net" modified="2023-05-01T13:54:04.485Z" agent="Mozilla/5.0 (Windows NT 10.0; Win64; x64) AppleWebKit/537.36 (KHTML, like Gecko) Chrome/112.0.0.0 Safari/537.36" etag="p6mtYDwzbteLGsV683t9" version="21.1.4" type="device">
  <diagram name="Page-1" id="mRRR7bWMbIEb7CFnWMx8">
    <mxGraphModel dx="765" dy="430" grid="1" gridSize="10" guides="1" tooltips="1" connect="1" arrows="1" fold="1" page="1" pageScale="1" pageWidth="850" pageHeight="1100" math="0" shadow="0">
      <root>
        <mxCell id="0" />
        <mxCell id="1" parent="0" />
        <mxCell id="8YSOjerR6sfcLglGngzu-3" value=": Eatables" style="fontStyle=0;html=1;whiteSpace=wrap;strokeWidth=2;fontFamily=Poppins;fontSource=https%3A%2F%2Ffonts.googleapis.com%2Fcss%3Ffamily%3DPoppins;" parent="1" vertex="1">
          <mxGeometry x="360" y="160" width="120" height="40" as="geometry" />
        </mxCell>
        <mxCell id="8YSOjerR6sfcLglGngzu-4" value=": User" style="fontStyle=0;html=1;whiteSpace=wrap;strokeWidth=2;fontFamily=Poppins;fontSource=https%3A%2F%2Ffonts.googleapis.com%2Fcss%3Ffamily%3DPoppins;" parent="1" vertex="1">
          <mxGeometry x="80" y="160" width="120" height="40" as="geometry" />
        </mxCell>
        <mxCell id="8YSOjerR6sfcLglGngzu-5" value=": Admin" style="fontStyle=0;html=1;whiteSpace=wrap;strokeWidth=2;fontFamily=Poppins;fontSource=https%3A%2F%2Ffonts.googleapis.com%2Fcss%3Ffamily%3DPoppins;" parent="1" vertex="1">
          <mxGeometry x="640" y="160" width="120" height="40" as="geometry" />
        </mxCell>
        <mxCell id="8YSOjerR6sfcLglGngzu-17" style="edgeStyle=elbowEdgeStyle;rounded=0;orthogonalLoop=1;jettySize=auto;html=1;elbow=vertical;curved=0;endArrow=block;endFill=1;strokeWidth=1;fontFamily=Poppins;fontSource=https%3A%2F%2Ffonts.googleapis.com%2Fcss%3Ffamily%3DPoppins;" parent="1" edge="1">
          <mxGeometry relative="1" as="geometry">
            <mxPoint x="145.0000000000001" y="263" as="sourcePoint" />
            <mxPoint x="415" y="263" as="targetPoint" />
            <Array as="points">
              <mxPoint x="250" y="263" />
            </Array>
          </mxGeometry>
        </mxCell>
        <mxCell id="8YSOjerR6sfcLglGngzu-21" style="edgeStyle=elbowEdgeStyle;shape=connector;curved=0;rounded=0;orthogonalLoop=1;jettySize=auto;elbow=vertical;html=1;labelBackgroundColor=default;strokeColor=default;strokeWidth=1;fontFamily=Helvetica;fontSize=11;fontColor=default;endArrow=block;endFill=1;" parent="1" source="8YSOjerR6sfcLglGngzu-9" target="8YSOjerR6sfcLglGngzu-10" edge="1">
          <mxGeometry relative="1" as="geometry">
            <Array as="points">
              <mxPoint x="290" y="320" />
            </Array>
          </mxGeometry>
        </mxCell>
        <mxCell id="8YSOjerR6sfcLglGngzu-31" style="edgeStyle=elbowEdgeStyle;shape=connector;curved=0;rounded=0;orthogonalLoop=1;jettySize=auto;elbow=vertical;html=1;labelBackgroundColor=default;strokeColor=default;strokeWidth=1;fontFamily=Poppins;fontSource=https%3A%2F%2Ffonts.googleapis.com%2Fcss%3Ffamily%3DPoppins;fontSize=11;fontColor=default;endArrow=block;endFill=1;" parent="1" source="8YSOjerR6sfcLglGngzu-9" edge="1">
          <mxGeometry relative="1" as="geometry">
            <mxPoint x="414" y="390" as="targetPoint" />
            <mxPoint x="150" y="390" as="sourcePoint" />
          </mxGeometry>
        </mxCell>
        <mxCell id="8YSOjerR6sfcLglGngzu-33" style="edgeStyle=elbowEdgeStyle;shape=connector;curved=0;rounded=0;orthogonalLoop=1;jettySize=auto;elbow=vertical;html=1;labelBackgroundColor=default;strokeColor=default;strokeWidth=1;fontFamily=Poppins;fontSource=https%3A%2F%2Ffonts.googleapis.com%2Fcss%3Ffamily%3DPoppins;fontSize=11;fontColor=default;endArrow=block;endFill=1;" parent="1" edge="1">
          <mxGeometry relative="1" as="geometry">
            <mxPoint x="415" y="482.4545454545454" as="targetPoint" />
            <mxPoint x="145" y="482.33333333333337" as="sourcePoint" />
          </mxGeometry>
        </mxCell>
        <mxCell id="8YSOjerR6sfcLglGngzu-36" style="edgeStyle=elbowEdgeStyle;shape=connector;curved=0;rounded=0;orthogonalLoop=1;jettySize=auto;elbow=vertical;html=1;labelBackgroundColor=default;strokeColor=default;strokeWidth=1;fontFamily=Poppins;fontSource=https%3A%2F%2Ffonts.googleapis.com%2Fcss%3Ffamily%3DPoppins;fontSize=11;fontColor=default;endArrow=block;endFill=1;" parent="1" target="8YSOjerR6sfcLglGngzu-10" edge="1">
          <mxGeometry relative="1" as="geometry">
            <mxPoint x="410" y="450" as="targetPoint" />
            <mxPoint x="144.9999999999999" y="450.090909090909" as="sourcePoint" />
          </mxGeometry>
        </mxCell>
        <mxCell id="8YSOjerR6sfcLglGngzu-39" style="edgeStyle=elbowEdgeStyle;shape=connector;curved=0;rounded=0;orthogonalLoop=1;jettySize=auto;elbow=vertical;html=1;labelBackgroundColor=default;strokeColor=default;strokeWidth=1;fontFamily=Poppins;fontSource=https%3A%2F%2Ffonts.googleapis.com%2Fcss%3Ffamily%3DPoppins;fontSize=11;fontColor=default;endArrow=block;endFill=1;exitX=0.9;exitY=0.878;exitDx=0;exitDy=0;exitPerimeter=0;" parent="1" edge="1">
          <mxGeometry relative="1" as="geometry">
            <mxPoint x="415" y="533.4" as="targetPoint" />
            <mxPoint x="144" y="533.2" as="sourcePoint" />
          </mxGeometry>
        </mxCell>
        <mxCell id="8YSOjerR6sfcLglGngzu-47" style="edgeStyle=elbowEdgeStyle;shape=connector;curved=0;rounded=0;orthogonalLoop=1;jettySize=auto;elbow=vertical;html=1;labelBackgroundColor=default;strokeColor=default;strokeWidth=1;fontFamily=Poppins;fontSource=https%3A%2F%2Ffonts.googleapis.com%2Fcss%3Ffamily%3DPoppins;fontSize=11;fontColor=default;endArrow=none;endFill=0;startArrow=block;startFill=1;dashed=1;" parent="1" edge="1">
          <mxGeometry relative="1" as="geometry">
            <mxPoint x="145" y="597.2" as="sourcePoint" />
            <mxPoint x="415" y="597.2" as="targetPoint" />
          </mxGeometry>
        </mxCell>
        <mxCell id="8YSOjerR6sfcLglGngzu-9" value="" style="html=1;points=[];perimeter=orthogonalPerimeter;outlineConnect=0;targetShapes=umlLifeline;portConstraint=eastwest;newEdgeStyle={&quot;edgeStyle&quot;:&quot;elbowEdgeStyle&quot;,&quot;elbow&quot;:&quot;vertical&quot;,&quot;curved&quot;:0,&quot;rounded&quot;:0};fontFamily=Poppins;fontSource=https%3A%2F%2Ffonts.googleapis.com%2Fcss%3Ffamily%3DPoppins;" parent="1" vertex="1">
          <mxGeometry x="135" y="240" width="10" height="400" as="geometry" />
        </mxCell>
        <mxCell id="8YSOjerR6sfcLglGngzu-19" style="edgeStyle=elbowEdgeStyle;shape=connector;curved=0;rounded=0;orthogonalLoop=1;jettySize=auto;elbow=vertical;html=1;labelBackgroundColor=default;strokeColor=default;strokeWidth=1;fontFamily=Poppins;fontSize=11;fontColor=default;endArrow=block;endFill=1;entryX=1.219;entryY=0.123;entryDx=0;entryDy=0;entryPerimeter=0;fontSource=https%3A%2F%2Ffonts.googleapis.com%2Fcss%3Ffamily%3DPoppins;dashed=1;" parent="1" edge="1">
          <mxGeometry relative="1" as="geometry">
            <mxPoint x="147.19000000000005" y="292.36" as="targetPoint" />
            <mxPoint x="415" y="292.42857142857144" as="sourcePoint" />
          </mxGeometry>
        </mxCell>
        <mxCell id="8YSOjerR6sfcLglGngzu-26" style="edgeStyle=elbowEdgeStyle;shape=connector;curved=0;rounded=0;orthogonalLoop=1;jettySize=auto;elbow=vertical;html=1;labelBackgroundColor=default;strokeColor=default;strokeWidth=1;fontFamily=Poppins;fontSource=https%3A%2F%2Ffonts.googleapis.com%2Fcss%3Ffamily%3DPoppins;fontSize=11;fontColor=default;endArrow=block;endFill=1;dashed=1;" parent="1" edge="1">
          <mxGeometry relative="1" as="geometry">
            <mxPoint x="415" y="358.20000000000005" as="sourcePoint" />
            <mxPoint x="145" y="358.20000000000005" as="targetPoint" />
          </mxGeometry>
        </mxCell>
        <mxCell id="8YSOjerR6sfcLglGngzu-29" style="edgeStyle=elbowEdgeStyle;shape=connector;curved=0;rounded=0;orthogonalLoop=1;jettySize=auto;elbow=vertical;html=1;labelBackgroundColor=default;strokeColor=default;strokeWidth=1;fontFamily=Poppins;fontSource=https%3A%2F%2Ffonts.googleapis.com%2Fcss%3Ffamily%3DPoppins;fontSize=11;fontColor=default;endArrow=block;endFill=1;dashed=1;" parent="1" edge="1">
          <mxGeometry relative="1" as="geometry">
            <mxPoint x="415" y="423.20000000000005" as="sourcePoint" />
            <mxPoint x="145" y="423.20000000000005" as="targetPoint" />
          </mxGeometry>
        </mxCell>
        <mxCell id="8YSOjerR6sfcLglGngzu-66" style="edgeStyle=elbowEdgeStyle;shape=connector;curved=0;rounded=0;orthogonalLoop=1;jettySize=auto;elbow=vertical;html=1;entryX=0.144;entryY=1.014;entryDx=0;entryDy=0;entryPerimeter=0;labelBackgroundColor=default;strokeColor=default;strokeWidth=1;fontFamily=Poppins;fontSource=https%3A%2F%2Ffonts.googleapis.com%2Fcss%3Ffamily%3DPoppins;fontSize=11;fontColor=default;endArrow=block;endFill=1;dashed=1;" parent="1" edge="1">
          <mxGeometry relative="1" as="geometry">
            <mxPoint x="425" y="286.55555555555554" as="sourcePoint" />
            <mxPoint x="696.44" y="286.55999999999995" as="targetPoint" />
          </mxGeometry>
        </mxCell>
        <mxCell id="8YSOjerR6sfcLglGngzu-10" value="" style="html=1;points=[];perimeter=orthogonalPerimeter;outlineConnect=0;targetShapes=umlLifeline;portConstraint=eastwest;newEdgeStyle={&quot;edgeStyle&quot;:&quot;elbowEdgeStyle&quot;,&quot;elbow&quot;:&quot;vertical&quot;,&quot;curved&quot;:0,&quot;rounded&quot;:0};fontFamily=Poppins;fontSource=https%3A%2F%2Ffonts.googleapis.com%2Fcss%3Ffamily%3DPoppins;" parent="1" vertex="1">
          <mxGeometry x="415" y="240" width="10" height="400" as="geometry" />
        </mxCell>
        <mxCell id="8YSOjerR6sfcLglGngzu-52" style="edgeStyle=elbowEdgeStyle;shape=connector;curved=0;rounded=0;orthogonalLoop=1;jettySize=auto;elbow=vertical;html=1;labelBackgroundColor=default;strokeColor=default;strokeWidth=1;fontFamily=Poppins;fontSource=https%3A%2F%2Ffonts.googleapis.com%2Fcss%3Ffamily%3DPoppins;fontSize=11;fontColor=default;endArrow=block;endFill=1;" parent="1" edge="1">
          <mxGeometry relative="1" as="geometry">
            <mxPoint x="697" y="357.20000000000005" as="sourcePoint" />
            <mxPoint x="425" y="357.20000000000005" as="targetPoint" />
          </mxGeometry>
        </mxCell>
        <mxCell id="8YSOjerR6sfcLglGngzu-11" value="" style="html=1;points=[];perimeter=orthogonalPerimeter;outlineConnect=0;targetShapes=umlLifeline;portConstraint=eastwest;newEdgeStyle={&quot;edgeStyle&quot;:&quot;elbowEdgeStyle&quot;,&quot;elbow&quot;:&quot;vertical&quot;,&quot;curved&quot;:0,&quot;rounded&quot;:0};fontFamily=Poppins;fontSource=https%3A%2F%2Ffonts.googleapis.com%2Fcss%3Ffamily%3DPoppins;" parent="1" vertex="1">
          <mxGeometry x="695" y="340" width="10" height="40" as="geometry" />
        </mxCell>
        <mxCell id="8YSOjerR6sfcLglGngzu-13" value="" style="endArrow=none;dashed=1;html=1;rounded=0;exitX=0.5;exitY=1;exitDx=0;exitDy=0;fontFamily=Poppins;fontSource=https%3A%2F%2Ffonts.googleapis.com%2Fcss%3Ffamily%3DPoppins;" parent="1" source="8YSOjerR6sfcLglGngzu-4" target="8YSOjerR6sfcLglGngzu-9" edge="1">
          <mxGeometry width="50" height="50" relative="1" as="geometry">
            <mxPoint x="310" y="320" as="sourcePoint" />
            <mxPoint x="360" y="270" as="targetPoint" />
          </mxGeometry>
        </mxCell>
        <mxCell id="8YSOjerR6sfcLglGngzu-14" value="" style="endArrow=none;dashed=1;html=1;rounded=0;exitX=0.5;exitY=1;exitDx=0;exitDy=0;fontFamily=Poppins;fontSource=https%3A%2F%2Ffonts.googleapis.com%2Fcss%3Ffamily%3DPoppins;" parent="1" edge="1">
          <mxGeometry width="50" height="50" relative="1" as="geometry">
            <mxPoint x="419.74" y="200" as="sourcePoint" />
            <mxPoint x="419.74" y="240" as="targetPoint" />
          </mxGeometry>
        </mxCell>
        <mxCell id="8YSOjerR6sfcLglGngzu-15" value="" style="endArrow=none;dashed=1;html=1;rounded=0;exitX=0.5;exitY=1;exitDx=0;exitDy=0;fontFamily=Poppins;fontSource=https%3A%2F%2Ffonts.googleapis.com%2Fcss%3Ffamily%3DPoppins;" parent="1" target="8YSOjerR6sfcLglGngzu-11" edge="1">
          <mxGeometry width="50" height="50" relative="1" as="geometry">
            <mxPoint x="699.74" y="200" as="sourcePoint" />
            <mxPoint x="699.74" y="240" as="targetPoint" />
          </mxGeometry>
        </mxCell>
        <mxCell id="8YSOjerR6sfcLglGngzu-18" value="Login&amp;nbsp;" style="text;html=1;align=center;verticalAlign=middle;resizable=0;points=[];autosize=1;strokeColor=none;fillColor=none;fontSize=11;fontFamily=Poppins;fontColor=default;fontSource=https%3A%2F%2Ffonts.googleapis.com%2Fcss%3Ffamily%3DPoppins;" parent="1" vertex="1">
          <mxGeometry x="250" y="238" width="60" height="30" as="geometry" />
        </mxCell>
        <mxCell id="8YSOjerR6sfcLglGngzu-22" value="Gives Location" style="text;html=1;align=center;verticalAlign=middle;resizable=0;points=[];autosize=1;strokeColor=none;fillColor=none;fontSize=11;fontFamily=Poppins;fontColor=default;fontSource=https%3A%2F%2Ffonts.googleapis.com%2Fcss%3Ffamily%3DPoppins;" parent="1" vertex="1">
          <mxGeometry x="232" y="299" width="100" height="30" as="geometry" />
        </mxCell>
        <mxCell id="8YSOjerR6sfcLglGngzu-23" value="Display Profile" style="text;html=1;align=center;verticalAlign=middle;resizable=0;points=[];autosize=1;strokeColor=none;fillColor=none;fontSize=11;fontFamily=Poppins;fontColor=default;fontSource=https%3A%2F%2Ffonts.googleapis.com%2Fcss%3Ffamily%3DPoppins;" parent="1" vertex="1">
          <mxGeometry x="230" y="268" width="100" height="30" as="geometry" />
        </mxCell>
        <mxCell id="8YSOjerR6sfcLglGngzu-27" value="Restaurant List" style="text;html=1;align=center;verticalAlign=middle;resizable=0;points=[];autosize=1;strokeColor=none;fillColor=none;fontSize=11;fontFamily=Poppins;fontColor=default;fontSource=https%3A%2F%2Ffonts.googleapis.com%2Fcss%3Ffamily%3DPoppins;" parent="1" vertex="1">
          <mxGeometry x="232" y="334" width="100" height="30" as="geometry" />
        </mxCell>
        <mxCell id="8YSOjerR6sfcLglGngzu-30" value="Menu" style="text;html=1;align=center;verticalAlign=middle;resizable=0;points=[];autosize=1;strokeColor=none;fillColor=none;fontSize=11;fontFamily=Poppins;fontColor=default;fontSource=https%3A%2F%2Ffonts.googleapis.com%2Fcss%3Ffamily%3DPoppins;" parent="1" vertex="1">
          <mxGeometry x="252" y="398" width="50" height="30" as="geometry" />
        </mxCell>
        <mxCell id="8YSOjerR6sfcLglGngzu-32" value="Selects Restaurant" style="text;html=1;align=center;verticalAlign=middle;resizable=0;points=[];autosize=1;strokeColor=none;fillColor=none;fontSize=11;fontFamily=Poppins;fontColor=default;fontSource=https%3A%2F%2Ffonts.googleapis.com%2Fcss%3Ffamily%3DPoppins;" parent="1" vertex="1">
          <mxGeometry x="219" y="364" width="130" height="30" as="geometry" />
        </mxCell>
        <mxCell id="8YSOjerR6sfcLglGngzu-34" value="Adds review" style="text;html=1;align=center;verticalAlign=middle;resizable=0;points=[];autosize=1;strokeColor=none;fillColor=none;fontSize=11;fontFamily=Poppins;fontColor=default;fontSource=https%3A%2F%2Ffonts.googleapis.com%2Fcss%3Ffamily%3DPoppins;" parent="1" vertex="1">
          <mxGeometry x="234" y="458" width="90" height="30" as="geometry" />
        </mxCell>
        <mxCell id="8YSOjerR6sfcLglGngzu-37" value="Add item to Favourite" style="text;html=1;align=center;verticalAlign=middle;resizable=0;points=[];autosize=1;strokeColor=none;fillColor=none;fontSize=11;fontFamily=Poppins;fontColor=default;fontSource=https%3A%2F%2Ffonts.googleapis.com%2Fcss%3Ffamily%3DPoppins;" parent="1" vertex="1">
          <mxGeometry x="210" y="428" width="140" height="30" as="geometry" />
        </mxCell>
        <mxCell id="8YSOjerR6sfcLglGngzu-40" value="Send restaurant suggession" style="text;html=1;align=center;verticalAlign=middle;resizable=0;points=[];autosize=1;strokeColor=none;fillColor=none;fontSize=11;fontFamily=Poppins;fontColor=default;fontSource=https%3A%2F%2Ffonts.googleapis.com%2Fcss%3Ffamily%3DPoppins;" parent="1" vertex="1">
          <mxGeometry x="191" y="509" width="180" height="30" as="geometry" />
        </mxCell>
        <mxCell id="8YSOjerR6sfcLglGngzu-42" value="Views video" style="text;html=1;align=center;verticalAlign=middle;resizable=0;points=[];autosize=1;strokeColor=none;fillColor=none;fontSize=11;fontFamily=Poppins;fontColor=default;fontSource=https%3A%2F%2Ffonts.googleapis.com%2Fcss%3Ffamily%3DPoppins;" parent="1" vertex="1">
          <mxGeometry x="234" y="573" width="90" height="30" as="geometry" />
        </mxCell>
        <mxCell id="8YSOjerR6sfcLglGngzu-43" style="edgeStyle=elbowEdgeStyle;shape=connector;curved=0;rounded=0;orthogonalLoop=1;jettySize=auto;elbow=vertical;html=1;labelBackgroundColor=default;strokeColor=default;strokeWidth=1;fontFamily=Poppins;fontSource=https%3A%2F%2Ffonts.googleapis.com%2Fcss%3Ffamily%3DPoppins;fontSize=11;fontColor=default;endArrow=block;endFill=1;exitX=0.9;exitY=0.878;exitDx=0;exitDy=0;exitPerimeter=0;" parent="1" edge="1">
          <mxGeometry relative="1" as="geometry">
            <mxPoint x="696" y="534.4" as="targetPoint" />
            <mxPoint x="425" y="534.2" as="sourcePoint" />
          </mxGeometry>
        </mxCell>
        <mxCell id="8YSOjerR6sfcLglGngzu-44" value="Reviews suggestion" style="text;html=1;align=center;verticalAlign=middle;resizable=0;points=[];autosize=1;strokeColor=none;fillColor=none;fontSize=11;fontFamily=Poppins;fontColor=default;fontSource=https%3A%2F%2Ffonts.googleapis.com%2Fcss%3Ffamily%3DPoppins;" parent="1" vertex="1">
          <mxGeometry x="497" y="510" width="130" height="30" as="geometry" />
        </mxCell>
        <mxCell id="8YSOjerR6sfcLglGngzu-53" value="Add/Remove Restaurant" style="text;html=1;align=center;verticalAlign=middle;resizable=0;points=[];autosize=1;strokeColor=none;fillColor=none;fontSize=11;fontFamily=Poppins;fontColor=default;fontSource=https%3A%2F%2Ffonts.googleapis.com%2Fcss%3Ffamily%3DPoppins;" parent="1" vertex="1">
          <mxGeometry x="479" y="332" width="160" height="30" as="geometry" />
        </mxCell>
        <mxCell id="8YSOjerR6sfcLglGngzu-54" value="" style="html=1;points=[];perimeter=orthogonalPerimeter;outlineConnect=0;targetShapes=umlLifeline;portConstraint=eastwest;newEdgeStyle={&quot;edgeStyle&quot;:&quot;elbowEdgeStyle&quot;,&quot;elbow&quot;:&quot;vertical&quot;,&quot;curved&quot;:0,&quot;rounded&quot;:0};fontFamily=Poppins;fontSource=https%3A%2F%2Ffonts.googleapis.com%2Fcss%3Ffamily%3DPoppins;" parent="1" vertex="1">
          <mxGeometry x="696" y="490" width="10" height="100" as="geometry" />
        </mxCell>
        <mxCell id="8YSOjerR6sfcLglGngzu-56" value="" style="endArrow=none;dashed=1;html=1;rounded=0;fontFamily=Poppins;fontSource=https%3A%2F%2Ffonts.googleapis.com%2Fcss%3Ffamily%3DPoppins;" parent="1" source="8YSOjerR6sfcLglGngzu-11" target="8YSOjerR6sfcLglGngzu-54" edge="1">
          <mxGeometry width="50" height="50" relative="1" as="geometry">
            <mxPoint x="702" y="380" as="sourcePoint" />
            <mxPoint x="700" y="470" as="targetPoint" />
            <Array as="points">
              <mxPoint x="700" y="420" />
            </Array>
          </mxGeometry>
        </mxCell>
        <mxCell id="8YSOjerR6sfcLglGngzu-57" value="" style="endArrow=none;dashed=1;html=1;rounded=0;fontFamily=Poppins;fontSource=https%3A%2F%2Ffonts.googleapis.com%2Fcss%3Ffamily%3DPoppins;" parent="1" source="8YSOjerR6sfcLglGngzu-54" edge="1">
          <mxGeometry width="50" height="50" relative="1" as="geometry">
            <mxPoint x="710" y="600" as="sourcePoint" />
            <mxPoint x="700" y="720" as="targetPoint" />
            <Array as="points" />
          </mxGeometry>
        </mxCell>
        <mxCell id="8YSOjerR6sfcLglGngzu-58" value="" style="endArrow=none;dashed=1;html=1;rounded=0;fontFamily=Poppins;fontSource=https%3A%2F%2Ffonts.googleapis.com%2Fcss%3Ffamily%3DPoppins;" parent="1" source="8YSOjerR6sfcLglGngzu-10" edge="1">
          <mxGeometry width="50" height="50" relative="1" as="geometry">
            <mxPoint x="700" y="590" as="sourcePoint" />
            <mxPoint x="420" y="720" as="targetPoint" />
            <Array as="points">
              <mxPoint x="420" y="680" />
            </Array>
          </mxGeometry>
        </mxCell>
        <mxCell id="8YSOjerR6sfcLglGngzu-60" value="" style="endArrow=none;dashed=1;html=1;rounded=0;fontFamily=Poppins;fontSource=https%3A%2F%2Ffonts.googleapis.com%2Fcss%3Ffamily%3DPoppins;entryX=0.511;entryY=0.395;entryDx=0;entryDy=0;entryPerimeter=0;" parent="1" source="8YSOjerR6sfcLglGngzu-9" target="8YSOjerR6sfcLglGngzu-68" edge="1">
          <mxGeometry width="50" height="50" relative="1" as="geometry">
            <mxPoint x="145" y="640" as="sourcePoint" />
            <mxPoint x="140" y="720" as="targetPoint" />
            <Array as="points" />
          </mxGeometry>
        </mxCell>
        <mxCell id="8YSOjerR6sfcLglGngzu-62" style="edgeStyle=elbowEdgeStyle;shape=connector;curved=0;rounded=0;orthogonalLoop=1;jettySize=auto;elbow=vertical;html=1;labelBackgroundColor=default;strokeColor=default;strokeWidth=1;fontFamily=Poppins;fontSource=https%3A%2F%2Ffonts.googleapis.com%2Fcss%3Ffamily%3DPoppins;fontSize=11;fontColor=default;endArrow=block;endFill=1;" parent="1" edge="1">
          <mxGeometry relative="1" as="geometry">
            <mxPoint x="697" y="263.20000000000005" as="sourcePoint" />
            <mxPoint x="425" y="263.20000000000005" as="targetPoint" />
          </mxGeometry>
        </mxCell>
        <mxCell id="8YSOjerR6sfcLglGngzu-63" value="" style="html=1;points=[];perimeter=orthogonalPerimeter;outlineConnect=0;targetShapes=umlLifeline;portConstraint=eastwest;newEdgeStyle={&quot;edgeStyle&quot;:&quot;elbowEdgeStyle&quot;,&quot;elbow&quot;:&quot;vertical&quot;,&quot;curved&quot;:0,&quot;rounded&quot;:0};fontFamily=Poppins;fontSource=https%3A%2F%2Ffonts.googleapis.com%2Fcss%3Ffamily%3DPoppins;" parent="1" vertex="1">
          <mxGeometry x="695" y="246" width="10" height="54" as="geometry" />
        </mxCell>
        <mxCell id="8YSOjerR6sfcLglGngzu-64" value="Login" style="text;html=1;align=center;verticalAlign=middle;resizable=0;points=[];autosize=1;strokeColor=none;fillColor=none;fontSize=11;fontFamily=Poppins;fontColor=default;fontSource=https%3A%2F%2Ffonts.googleapis.com%2Fcss%3Ffamily%3DPoppins;" parent="1" vertex="1">
          <mxGeometry x="534" y="238" width="50" height="30" as="geometry" />
        </mxCell>
        <mxCell id="8YSOjerR6sfcLglGngzu-67" value="Admin Dashboard" style="text;html=1;align=center;verticalAlign=middle;resizable=0;points=[];autosize=1;strokeColor=none;fillColor=none;fontSize=11;fontFamily=Poppins;fontColor=default;fontSource=https%3A%2F%2Ffonts.googleapis.com%2Fcss%3Ffamily%3DPoppins;" parent="1" vertex="1">
          <mxGeometry x="499" y="265" width="120" height="30" as="geometry" />
        </mxCell>
        <mxCell id="8YSOjerR6sfcLglGngzu-68" value="" style="shape=umlDestroy;whiteSpace=wrap;html=1;strokeWidth=3;targetShapes=umlLifeline;fontFamily=Poppins;fontSource=https%3A%2F%2Ffonts.googleapis.com%2Fcss%3Ffamily%3DPoppins;fontSize=11;fontColor=default;" parent="1" vertex="1">
          <mxGeometry x="125" y="705" width="30" height="30" as="geometry" />
        </mxCell>
        <mxCell id="8YSOjerR6sfcLglGngzu-69" value="" style="shape=umlDestroy;whiteSpace=wrap;html=1;strokeWidth=3;targetShapes=umlLifeline;fontFamily=Poppins;fontSource=https%3A%2F%2Ffonts.googleapis.com%2Fcss%3Ffamily%3DPoppins;fontSize=11;fontColor=default;" parent="1" vertex="1">
          <mxGeometry x="685" y="710" width="30" height="30" as="geometry" />
        </mxCell>
        <mxCell id="8YSOjerR6sfcLglGngzu-70" value="" style="shape=umlDestroy;whiteSpace=wrap;html=1;strokeWidth=3;targetShapes=umlLifeline;fontFamily=Poppins;fontSource=https%3A%2F%2Ffonts.googleapis.com%2Fcss%3Ffamily%3DPoppins;fontSize=11;fontColor=default;" parent="1" vertex="1">
          <mxGeometry x="405" y="710" width="30" height="30" as="geometry" />
        </mxCell>
        <mxCell id="f1emwSf_Sfcm7_mGGRrW-3" value="Review" style="text;html=1;align=center;verticalAlign=middle;resizable=0;points=[];autosize=1;strokeColor=none;fillColor=none;fontSize=11;fontFamily=Poppins;fontColor=default;fontSource=https%3A%2F%2Ffonts.googleapis.com%2Fcss%3Ffamily%3DPoppins;" vertex="1" parent="1">
          <mxGeometry x="247" y="480" width="60" height="30" as="geometry" />
        </mxCell>
        <mxCell id="f1emwSf_Sfcm7_mGGRrW-4" style="edgeStyle=elbowEdgeStyle;shape=connector;curved=0;rounded=0;orthogonalLoop=1;jettySize=auto;elbow=vertical;html=1;labelBackgroundColor=default;strokeColor=default;strokeWidth=1;fontFamily=Poppins;fontSource=https%3A%2F%2Ffonts.googleapis.com%2Fcss%3Ffamily%3DPoppins;fontSize=11;fontColor=default;endArrow=block;endFill=1;dashed=1;" edge="1" parent="1">
          <mxGeometry relative="1" as="geometry">
            <mxPoint x="415" y="505.20000000000005" as="sourcePoint" />
            <mxPoint x="145" y="505.20000000000005" as="targetPoint" />
          </mxGeometry>
        </mxCell>
        <mxCell id="f1emwSf_Sfcm7_mGGRrW-7" value="" style="html=1;points=[];perimeter=orthogonalPerimeter;outlineConnect=0;targetShapes=umlLifeline;portConstraint=eastwest;newEdgeStyle={&quot;edgeStyle&quot;:&quot;elbowEdgeStyle&quot;,&quot;elbow&quot;:&quot;vertical&quot;,&quot;curved&quot;:0,&quot;rounded&quot;:0};fontFamily=Poppins;fontSource=https%3A%2F%2Ffonts.googleapis.com%2Fcss%3Ffamily%3DPoppins;" vertex="1" parent="1">
          <mxGeometry x="695" y="408" width="10" height="40" as="geometry" />
        </mxCell>
        <mxCell id="f1emwSf_Sfcm7_mGGRrW-8" value="Add/Remove Items" style="text;html=1;align=center;verticalAlign=middle;resizable=0;points=[];autosize=1;strokeColor=none;fillColor=none;fontSize=11;fontFamily=Poppins;fontColor=default;fontSource=https%3A%2F%2Ffonts.googleapis.com%2Fcss%3Ffamily%3DPoppins;" vertex="1" parent="1">
          <mxGeometry x="494" y="400" width="130" height="30" as="geometry" />
        </mxCell>
        <mxCell id="f1emwSf_Sfcm7_mGGRrW-9" style="edgeStyle=elbowEdgeStyle;shape=connector;curved=0;rounded=0;orthogonalLoop=1;jettySize=auto;elbow=vertical;html=1;labelBackgroundColor=default;strokeColor=default;strokeWidth=1;fontFamily=Poppins;fontSource=https%3A%2F%2Ffonts.googleapis.com%2Fcss%3Ffamily%3DPoppins;fontSize=11;fontColor=default;endArrow=block;endFill=1;" edge="1" parent="1" source="f1emwSf_Sfcm7_mGGRrW-7">
          <mxGeometry relative="1" as="geometry">
            <mxPoint x="697" y="425.20000000000005" as="sourcePoint" />
            <mxPoint x="425" y="425.20000000000005" as="targetPoint" />
          </mxGeometry>
        </mxCell>
        <mxCell id="f1emwSf_Sfcm7_mGGRrW-10" style="edgeStyle=elbowEdgeStyle;shape=connector;curved=0;rounded=0;orthogonalLoop=1;jettySize=auto;elbow=vertical;html=1;labelBackgroundColor=default;strokeColor=default;strokeWidth=1;fontFamily=Poppins;fontSource=https%3A%2F%2Ffonts.googleapis.com%2Fcss%3Ffamily%3DPoppins;fontSize=11;fontColor=default;endArrow=block;endFill=1;exitX=0.9;exitY=0.878;exitDx=0;exitDy=0;exitPerimeter=0;" edge="1" parent="1">
          <mxGeometry relative="1" as="geometry">
            <mxPoint x="416.5" y="564.4" as="targetPoint" />
            <mxPoint x="145.5" y="564.2" as="sourcePoint" />
          </mxGeometry>
        </mxCell>
        <mxCell id="f1emwSf_Sfcm7_mGGRrW-11" value="Uploads video" style="text;html=1;align=center;verticalAlign=middle;resizable=0;points=[];autosize=1;strokeColor=none;fillColor=none;fontSize=11;fontFamily=Poppins;fontColor=default;fontSource=https%3A%2F%2Ffonts.googleapis.com%2Fcss%3Ffamily%3DPoppins;" vertex="1" parent="1">
          <mxGeometry x="232.5" y="540" width="100" height="30" as="geometry" />
        </mxCell>
        <mxCell id="f1emwSf_Sfcm7_mGGRrW-12" value="Add/Remove suggestion" style="text;html=1;align=center;verticalAlign=middle;resizable=0;points=[];autosize=1;strokeColor=none;fillColor=none;fontSize=11;fontFamily=Poppins;fontColor=default;fontSource=https%3A%2F%2Ffonts.googleapis.com%2Fcss%3Ffamily%3DPoppins;" vertex="1" parent="1">
          <mxGeometry x="480" y="531" width="160" height="30" as="geometry" />
        </mxCell>
        <mxCell id="f1emwSf_Sfcm7_mGGRrW-13" style="edgeStyle=elbowEdgeStyle;shape=connector;curved=0;rounded=0;orthogonalLoop=1;jettySize=auto;elbow=vertical;html=1;labelBackgroundColor=default;strokeColor=default;strokeWidth=1;fontFamily=Poppins;fontSource=https%3A%2F%2Ffonts.googleapis.com%2Fcss%3Ffamily%3DPoppins;fontSize=11;fontColor=default;endArrow=block;endFill=1;" edge="1" parent="1">
          <mxGeometry relative="1" as="geometry">
            <mxPoint x="698" y="556.2" as="sourcePoint" />
            <mxPoint x="426" y="556.2" as="targetPoint" />
          </mxGeometry>
        </mxCell>
      </root>
    </mxGraphModel>
  </diagram>
</mxfile>
